<?xml version="1.0" encoding="UTF-8" standalone="no" ?>
<!DOCTYPE svg PUBLIC "-//W3C//DTD SVG 1.1//EN" "http://www.w3.org/Graphics/SVG/1.1/DTD/svg11.dtd">
<svg xmlns="http://www.w3.org/2000/svg" xmlns:xlink="http://www.w3.org/1999/xlink" version="1.1" width="32" height="32" viewBox="0 0 32 32" xml:space="preserve">
<desc>Created with Fabric.js 5.3.0</desc>
<defs>
</defs>
<g transform="matrix(0.3414633314 0 0 0.3414633314 16.00382 16)" id="z6ib5SVdfeYjONLxqg77k"  >
<path style="stroke: rgb(32,32,32); stroke-width: 4; stroke-dasharray: none; stroke-linecap: butt; stroke-dashoffset: 0; stroke-linejoin: miter; stroke-miterlimit: 4; fill: rgb(220,220,220); fill-rule: nonzero; opacity: 1;" vector-effect="non-scaling-stroke"  transform=" translate(-41.00001, -41.00001)" d="M 24 0 C 30.64029 0 36.6535 2.70123 41.00001 7.06407 C 45.346520000000005 2.7012400000000003 51.35973 0.000010000000000509601 58.00001 0.000010000000000509601 C 71.24801000000001 0.000010000000000509601 82.00001 10.752010000000002 82.00001 24.00001 C 82.00001 30.64029 79.29878000000001 36.6535 74.93595 41.00001 C 79.29879000000001 45.346520000000005 82.00002 51.35973 82.00002 58.000020000000006 C 82.00002 71.24802000000001 71.24802000000001 82.00002 58.000020000000006 82.00002 C 51.359730000000006 82.00002 45.346520000000005 79.29879000000001 41.00001 74.93595 C 36.6535 79.29878000000001 30.640290000000004 82.00001 24.000010000000003 82.00001 C 10.752010000000004 82.00001 0.000010000000003174137 71.24801000000001 0.000010000000003174137 58.00001 C 0.000010000000003174137 51.359730000000006 2.701240000000003 45.346520000000005 7.064070000000003 41.00001 C 2.7012300000000025 36.6535 2.6645352591003757e-15 30.640290000000004 2.6645352591003757e-15 24.000000000000004 C 2.6645352591003757e-15 10.752000000000004 10.752000000000002 3.552713678800501e-15 24.000000000000004 3.552713678800501e-15 z M 41.06408 41.00002 C 41.04268 40.978699999999996 41.021319999999996 40.95734 41 40.93594 C 40.97869 40.95733 40.95733 40.97869 40.93594 41 C 40.95734 41.02132 40.9787 41.04268 41.00002 41.06408 C 41.02133 41.04269 41.04269 41.02133 41.06408 41.00002 z" stroke-linecap="round" />
</g>
</svg>